<svg aria-hidden="true" style="position: absolute; width: 0; height: 0; overflow: hidden;" version="1.1" xmlns="http://www.w3.org/2000/svg" xmlns:xlink="http://www.w3.org/1999/xlink">
<defs>
<symbol id="Expense-icon" viewBox="0 0 54 32">
<path fill="#0ef387" style="fill: var(--color1, #0ef387)" d="M37.14 22.762c-0.105-0.281-9.39-18.757-9.529-19.038-0.489-1.194-1.361-2.213-2.513-2.916-2.897-1.686-6.597-0.703-8.273 2.213-1.152 2.002-1.082 4.356 0.035 6.217 0.105 0.246 8.971 17.95 9.145 18.231 0.105 0.281 0.244 0.527 0.384 0.808 0.489 1.194 1.361 2.213 2.513 2.916 2.897 1.686 6.597 0.738 8.273-2.178 1.187-2.002 1.082-4.391-0.035-6.252z"></path>
<path fill="#fafafa" style="fill: var(--color2, #fafafa)" d="M26.424 10.257c1.012-1.089 1.641-2.564 1.641-4.18 0-3.337-2.688-6.077-6.039-6.077-2.059 0-3.875 1.019-4.957 2.599-0.209 0.211-15.254 18.898-15.429 19.144-1.012 1.089-1.641 2.564-1.641 4.18 0 3.372 2.723 6.077 6.039 6.077 2.059 0 3.875-1.019 4.957-2.599 0.209-0.246 15.289-18.898 15.429-19.144z"></path>
<path fill="#fafafa" style="fill: var(--color2, #fafafa)" d="M52.359 10.257c1.012-1.089 1.641-2.564 1.641-4.18 0-3.372-2.723-6.077-6.039-6.077-2.060 0-3.875 1.019-4.957 2.599-0.209 0.211-15.289 18.898-15.463 19.144-1.012 1.089-1.641 2.564-1.641 4.18 0 3.372 2.723 6.077 6.039 6.077 2.059 0 3.875-1.019 4.957-2.599 0.244-0.246 15.289-18.898 15.464-19.144z"></path>
</symbol>
</defs>
</svg>
